<svg xmlns="http://www.w3.org/2000/svg" version="1.1" xmlns:xlink="http://www.w3.org/1999/xlink" xmlns:svgjs="http://svgjs.dev/svgjs" width="2000" height="707" viewBox="0 0 2000 707"><g transform="matrix(1,0,0,1,-1.2121212121212466,-0.667293413524817)"><svg viewBox="0 0 396 140" data-background-color="#ffffff" preserveAspectRatio="xMidYMid meet" height="707" width="2000" xmlns="http://www.w3.org/2000/svg" xmlns:xlink="http://www.w3.org/1999/xlink"><g id="tight-bounds" transform="matrix(1,0,0,1,0.2400000000000091,0.13213730960887915)"><svg viewBox="0 0 395.52 139.73572538078227" height="139.73572538078227" width="395.52"><g><svg viewBox="0 0 397.4975999999999 140.43440400768617" height="139.73572538078227" width="395.52"><g><rect width="397.4975999999999" height="4.017227701435377" x="0" y="72.07923424770466" fill="#556970" opacity="1" stroke-width="0" stroke="transparent" fill-opacity="1" class="rect-qz-0" data-fill-palette-color="primary" rx="1%" id="qz-0" data-palette-color="#556970"></rect></g><g><rect width="397.4975999999999" height="4.017227701435377" x="0" y="81.35461339080939" fill="#556970" opacity="1" stroke-width="0" stroke="transparent" fill-opacity="1" class="rect-qz-1" data-fill-palette-color="primary" rx="1%" id="qz-1" data-palette-color="#556970"></rect></g><g transform="matrix(1,0,0,1,0.9887999999999693,95.88814397558345)"><svg viewBox="0 0 395.52 44.54626003210273" height="44.54626003210273" width="395.52"><g id="textblocktransform"><svg viewBox="0 0 395.52 44.54626003210273" height="44.54626003210273" width="395.52" id="textblock"><g><svg viewBox="0 0 395.52 44.54626003210273" height="44.54626003210273" width="395.52"><g transform="matrix(1,0,0,1,0,0)"><svg width="395.52" viewBox="4.45 -32.75 373.76 42.1" height="44.54626003210273" data-palette-color="#556970"><path d="M7.25-17.45L21-17.45 21-14.15 7.25-14.15 7.25-17.45ZM15.25-14.15L15.25-14.15 16.85-16.65Q20.25-16.65 22.5-15.53 24.75-14.4 25.88-12.55 27-10.7 27-8.4L27-8.4Q27-3.85 23.73-1.65 20.45 0.55 14.4 0.55L14.4 0.55Q13.05 0.55 11.7 0.48 10.35 0.4 9.05 0.2 7.75 0 6.55-0.3L6.55-0.3Q4.45-0.9 4.45-2.6L4.45-2.6 4.45-28.2Q4.45-29 4.88-29.45 5.3-29.9 6.1-30.1L6.1-30.1Q7.8-30.6 9.73-30.78 11.65-30.95 13.85-30.95L13.85-30.95Q19.5-30.95 22.65-28.93 25.8-26.9 25.8-22.75L25.8-22.75Q25.8-20.65 24.78-18.88 23.75-17.1 21.48-16.03 19.2-14.95 15.4-14.95L15.4-14.95 14.95-17.45Q18.25-17.45 19.95-18.82 21.65-20.2 21.65-22.65L21.65-22.65Q21.65-25.15 19.68-26.38 17.7-27.6 13.85-27.6L13.85-27.6Q12.15-27.6 10.85-27.48 9.55-27.35 8.45-27.15L8.45-27.15 8.45-3.35Q9.65-3.1 11.23-2.95 12.8-2.8 14.4-2.8L14.4-2.8Q18.55-2.8 20.7-4.2 22.85-5.6 22.85-8.5L22.85-8.5Q22.85-11.1 20.93-12.63 19-14.15 15.25-14.15ZM32.8-27.25L32.8-27.25Q32.8-28.15 33.95-29.03 35.1-29.9 37.05-30.45 39-31 41.3-31L41.3-31Q44.5-31 46.8-29.93 49.1-28.85 50.35-26.9 51.6-24.95 51.6-22.3L51.6-22.3Q51.6-19.55 50.07-16.9 48.55-14.25 44.85-10.85L44.85-10.85 36.7-3.3 51.55-3.3Q51.75-3.1 51.9-2.68 52.05-2.25 52.05-1.7L52.05-1.7Q52.05-0.9 51.62-0.45 51.2 0 50.5 0L50.5 0 32.85 0Q32.35-0.35 32.1-0.88 31.85-1.4 31.85-2L31.85-2Q31.85-2.8 32.15-3.43 32.45-4.05 33.05-4.6L33.05-4.6 42.05-13.25Q45.15-16.15 46.3-18.13 47.45-20.1 47.45-22.25L47.45-22.25Q47.45-24.6 45.85-26.1 44.25-27.6 41-27.6L41-27.6Q38.8-27.6 37.07-26.85 35.35-26.1 34.2-25.25L34.2-25.25Q33.65-25.5 33.22-26 32.8-26.5 32.8-27.25ZM69.79-1.6L69.79-18.1 73.89-18.1 73.89-0.1Q73.59 0 73.09 0.13 72.59 0.25 71.99 0.25L71.99 0.25Q70.89 0.25 70.34-0.2 69.79-0.65 69.79-1.6L69.79-1.6ZM73.89-28.8L73.89-14.75 69.79-14.75 69.79-30.3Q70.04-30.4 70.57-30.53 71.09-30.65 71.69-30.65L71.69-30.65Q72.79-30.65 73.34-30.23 73.89-29.8 73.89-28.8L73.89-28.8ZM89.49-1.6L89.49-18.1 93.59-18.1 93.59-0.1Q93.29 0 92.79 0.13 92.29 0.25 91.69 0.25L91.69 0.25Q90.59 0.25 90.04-0.2 89.49-0.65 89.49-1.6L89.49-1.6ZM93.59-28.8L93.59-14.75 89.49-14.75 89.49-30.3Q89.74-30.4 90.27-30.53 90.79-30.65 91.39-30.65L91.39-30.65Q92.49-30.65 93.04-30.23 93.59-29.8 93.59-28.8L93.59-28.8ZM91.64-17.1L91.64-13.7 72.24-13.7 72.24-17.1 91.64-17.1ZM123.24-11.55L123.24-11.55Q123.24-7.85 121.84-5.1 120.44-2.35 117.89-0.85 115.34 0.65 111.89 0.65L111.89 0.65Q108.44 0.65 105.87-0.85 103.29-2.35 101.89-5.1 100.49-7.85 100.49-11.55L100.49-11.55Q100.49-15.3 101.92-18.03 103.34-20.75 105.92-22.25 108.49-23.75 111.89-23.75L111.89-23.75Q115.29-23.75 117.84-22.25 120.39-20.75 121.82-18.03 123.24-15.3 123.24-11.55ZM111.89-20.45L111.89-20.45Q108.54-20.45 106.57-18.07 104.59-15.7 104.59-11.55L104.59-11.55Q104.59-7.35 106.52-5 108.44-2.65 111.89-2.65L111.89-2.65Q115.29-2.65 117.22-5.03 119.14-7.4 119.14-11.55L119.14-11.55Q119.14-15.7 117.22-18.07 115.29-20.45 111.89-20.45ZM129.49-6.05L129.49-13.2 133.49-13.2 133.49-6.3Q133.49-4.3 134.64-3.48 135.79-2.65 137.79-2.65L137.79-2.65Q138.64-2.65 139.69-2.95 140.74-3.25 141.44-3.65L141.44-3.65Q141.74-3.35 141.99-2.9 142.24-2.45 142.24-1.85L142.24-1.85Q142.24-0.75 140.94-0.05 139.64 0.65 137.34 0.65L137.34 0.65Q133.84 0.65 131.66-0.9 129.49-2.45 129.49-6.05L129.49-6.05ZM140.64-19.3L131.54-19.3 131.54-22.6 141.69-22.6Q141.84-22.4 141.99-21.95 142.14-21.5 142.14-21L142.14-21Q142.14-20.2 141.74-19.75 141.34-19.3 140.64-19.3L140.64-19.3ZM133.49-28.35L133.49-11.7 129.49-11.7 129.49-29.8Q129.74-29.9 130.26-30.03 130.79-30.15 131.39-30.15L131.39-30.15Q132.44-30.15 132.96-29.73 133.49-29.3 133.49-28.35L133.49-28.35ZM166.29-11.35L149.49-9 149.29-12.15 164.39-14.2Q164.19-16.95 162.49-18.73 160.79-20.5 157.79-20.5L157.79-20.5Q154.69-20.5 152.66-18.28 150.64-16.05 150.64-11.9L150.64-11.9 150.64-10.8Q150.99-6.8 153.26-4.73 155.54-2.65 159.49-2.65L159.49-2.65Q161.59-2.65 163.29-3.35 164.99-4.05 165.99-4.85L165.99-4.85Q166.54-4.5 166.86-4.03 167.19-3.55 167.19-2.95L167.19-2.95Q167.19-2 166.11-1.18 165.04-0.35 163.26 0.15 161.49 0.65 159.29 0.65L159.29 0.65Q155.44 0.65 152.61-0.75 149.79-2.15 148.26-4.93 146.74-7.7 146.74-11.7L146.74-11.7Q146.74-14.55 147.56-16.78 148.39-19 149.86-20.55 151.34-22.1 153.39-22.93 155.44-23.75 157.84-23.75L157.84-23.75Q160.89-23.75 163.21-22.45 165.54-21.15 166.86-18.82 168.19-16.5 168.19-13.5L168.19-13.5Q168.19-12.4 167.69-11.93 167.19-11.45 166.29-11.35L166.29-11.35ZM174.38-1.55L174.38-13.2 178.38-12.6 178.38-0.1Q178.13 0 177.63 0.13 177.13 0.25 176.53 0.25L176.53 0.25Q175.48 0.25 174.93-0.18 174.38-0.6 174.38-1.55L174.38-1.55ZM178.38-30.95L178.38-10.7 174.38-11.25 174.38-32.4Q174.63-32.5 175.16-32.63 175.68-32.75 176.23-32.75L176.23-32.75Q177.33-32.75 177.86-32.33 178.38-31.9 178.38-30.95L178.38-30.95ZM219.18-27.05L219.18-27.05Q219.18-26.4 218.75-25.88 218.33-25.35 217.78-25.1L217.78-25.1Q216.53-26 214.75-26.8 212.98-27.6 210.18-27.6L210.18-27.6Q207.13-27.6 204.7-26.2 202.28-24.8 200.85-22.03 199.43-19.25 199.43-15.15L199.43-15.15Q199.43-9 202.45-5.9 205.48-2.8 210.33-2.8L210.33-2.8Q212.93-2.8 214.88-3.55 216.83-4.3 218.08-5.25L218.08-5.25Q218.58-5.05 219.03-4.53 219.48-4 219.48-3.3L219.48-3.3Q219.48-2.8 219.2-2.33 218.93-1.85 218.28-1.4L218.28-1.4Q217.13-0.6 215.13 0.03 213.13 0.65 210.03 0.65L210.03 0.65Q205.88 0.65 202.5-1.13 199.13-2.9 197.18-6.4 195.23-9.9 195.23-15.15L195.23-15.15Q195.23-20.4 197.25-23.95 199.28-27.5 202.6-29.28 205.93-31.05 209.88-31.05L209.88-31.05Q212.63-31.05 214.73-30.45 216.83-29.85 218-28.93 219.18-28 219.18-27.05ZM247.13-11.55L247.13-11.55Q247.13-7.85 245.73-5.1 244.33-2.35 241.78-0.85 239.23 0.65 235.78 0.65L235.78 0.65Q232.33 0.65 229.75-0.85 227.18-2.35 225.78-5.1 224.38-7.85 224.38-11.55L224.38-11.55Q224.38-15.3 225.8-18.03 227.23-20.75 229.8-22.25 232.38-23.75 235.78-23.75L235.78-23.75Q239.18-23.75 241.73-22.25 244.28-20.75 245.7-18.03 247.13-15.3 247.13-11.55ZM235.78-20.45L235.78-20.45Q232.43-20.45 230.45-18.07 228.48-15.7 228.48-11.55L228.48-11.55Q228.48-7.35 230.4-5 232.33-2.65 235.78-2.65L235.78-2.65Q239.18-2.65 241.1-5.03 243.03-7.4 243.03-11.55L243.03-11.55Q243.03-15.7 241.1-18.07 239.18-20.45 235.78-20.45ZM271.97-16L271.97-16 271.97-10.25 267.97-10.25 267.97-15.7Q267.97-18.15 266.55-19.3 265.12-20.45 262.77-20.45L262.77-20.45Q261.22-20.45 259.77-19.95 258.32-19.45 257.32-18.8L257.32-18.8 257.32-10.25 253.32-10.25 253.32-18.6Q253.32-19.6 253.75-20.3 254.17-21 255.22-21.65L255.22-21.65Q256.57-22.5 258.65-23.13 260.72-23.75 262.82-23.75L262.82-23.75Q265.37-23.75 267.32-22.98 269.27-22.2 270.22-20.85L270.22-20.85Q270.52-20.55 270.72-20.3 270.92-20.05 271.12-19.65L271.12-19.65Q271.47-19.05 271.72-18.1 271.97-17.15 271.97-16ZM286.62-15.9L286.62-15.9 286.62-10.25 282.62-10.25 282.62-15.7Q282.62-18.15 281.22-19.3 279.82-20.45 277.47-20.45L277.47-20.45Q275.72-20.45 274.1-19.73 272.47-19 271.17-17.65L271.17-17.65 269.57-20.55Q270.87-21.85 272.97-22.8 275.07-23.75 277.77-23.75L277.77-23.75Q280.47-23.75 282.45-22.9 284.42-22.05 285.52-20.3 286.62-18.55 286.62-15.9ZM253.32-1.55L253.32-12.9 257.32-12.9 257.32-0.1Q257.07 0 256.57 0.13 256.07 0.25 255.47 0.25L255.47 0.25Q254.42 0.25 253.87-0.18 253.32-0.6 253.32-1.55L253.32-1.55ZM267.97-1.55L267.97-12.9 271.97-12.9 271.97-0.1Q271.72 0 271.2 0.13 270.67 0.25 270.12 0.25L270.12 0.25Q269.02 0.25 268.5-0.18 267.97-0.6 267.97-1.55L267.97-1.55ZM282.62-1.55L282.62-12.9 286.62-12.9 286.62-0.1Q286.37 0 285.85 0.13 285.32 0.25 284.77 0.25L284.77 0.25Q283.67 0.25 283.15-0.18 282.62-0.6 282.62-1.55L282.62-1.55ZM303.97 0.65L303.97 0.65Q301.82 0.65 299.95 0.03 298.07-0.6 297.22-1.35L297.22-1.35 297.22-5.05Q298.22-4.1 299.75-3.38 301.27-2.65 303.42-2.65L303.42-2.65Q306.92-2.65 309.05-4.78 311.17-6.9 311.17-11.6L311.17-11.6Q311.17-14.9 310.1-16.82 309.02-18.75 307.25-19.6 305.47-20.45 303.42-20.45L303.42-20.45Q301.62-20.45 300.37-20 299.12-19.55 298.12-19L298.12-19 298.12-2.4 294.12-2.4 294.12-18.9Q294.12-19.9 294.47-20.5 294.82-21.1 295.92-21.75L295.92-21.75Q297.27-22.5 299.15-23.13 301.02-23.75 303.42-23.75L303.42-23.75Q306.72-23.75 309.4-22.48 312.07-21.2 313.65-18.53 315.22-15.85 315.22-11.6L315.22-11.6Q315.22-7.5 313.8-4.78 312.37-2.05 309.82-0.7 307.27 0.65 303.97 0.65ZM296.27 9.35L296.27 9.35Q295.22 9.35 294.67 8.9 294.12 8.45 294.12 7.5L294.12 7.5 294.12-3.85 298.12-3.75 298.12 9Q297.87 9.1 297.37 9.22 296.87 9.35 296.27 9.35ZM321.82-1.55L321.82-13.2 325.82-12.6 325.82-0.1Q325.57 0 325.07 0.13 324.57 0.25 323.97 0.25L323.97 0.25Q322.92 0.25 322.37-0.18 321.82-0.6 321.82-1.55L321.82-1.55ZM325.82-30.95L325.82-10.7 321.82-11.25 321.82-32.4Q322.07-32.5 322.59-32.63 323.12-32.75 323.67-32.75L323.67-32.75Q324.77-32.75 325.29-32.33 325.82-31.9 325.82-30.95L325.82-30.95ZM351.97-11.35L335.17-9 334.97-12.15 350.07-14.2Q349.87-16.95 348.17-18.73 346.47-20.5 343.47-20.5L343.47-20.5Q340.37-20.5 338.34-18.28 336.32-16.05 336.32-11.9L336.32-11.9 336.32-10.8Q336.67-6.8 338.94-4.73 341.22-2.65 345.17-2.65L345.17-2.65Q347.27-2.65 348.97-3.35 350.67-4.05 351.67-4.85L351.67-4.85Q352.22-4.5 352.54-4.03 352.87-3.55 352.87-2.95L352.87-2.95Q352.87-2 351.79-1.18 350.72-0.35 348.94 0.15 347.17 0.65 344.97 0.65L344.97 0.65Q341.12 0.65 338.29-0.75 335.47-2.15 333.94-4.93 332.42-7.7 332.42-11.7L332.42-11.7Q332.42-14.55 333.24-16.78 334.07-19 335.54-20.55 337.02-22.1 339.07-22.93 341.12-23.75 343.52-23.75L343.52-23.75Q346.57-23.75 348.89-22.45 351.22-21.15 352.54-18.82 353.87-16.5 353.87-13.5L353.87-13.5Q353.87-12.4 353.37-11.93 352.87-11.45 351.97-11.35L351.97-11.35ZM366.61-13.05L366.61-13.05 367.36-13.4Q369.41-16.05 371.21-18.35 373.01-20.65 374.91-23.4L374.91-23.4Q375.11-23.45 375.21-23.45 375.31-23.45 375.46-23.45L375.46-23.45Q376.51-23.45 377.11-22.98 377.71-22.5 377.71-21.7L377.71-21.7Q377.71-21.15 377.49-20.65 377.26-20.15 376.76-19.5L376.76-19.5Q375.06-17.4 373.29-15.25 371.51-13.1 369.81-11.05L369.81-11.05 368.51-9.95Q366.66-7.5 364.71-4.88 362.76-2.25 360.96 0.25L360.96 0.25Q360.91 0.25 360.64 0.25 360.36 0.25 360.26 0.25L360.26 0.25Q359.11 0.25 358.54-0.25 357.96-0.75 357.96-1.5L357.96-1.5Q357.96-1.9 358.14-2.35 358.31-2.8 358.96-3.6L358.96-3.6Q360.76-6 362.76-8.33 364.76-10.65 366.61-13.05ZM369.06-12.95L369.06-12.95 369.96-12.35Q372.01-9.65 374.09-7.03 376.16-4.4 378.21-1.75L378.21-1.75Q378.11-0.8 377.56-0.25 377.01 0.3 376.11 0.3L376.11 0.3Q375.31 0.3 374.76-0.13 374.21-0.55 373.51-1.45L373.51-1.45Q372.01-3.55 370.34-5.9 368.66-8.25 367.16-10.3L367.16-10.3 366.01-11.35Q363.81-14 361.91-16.4 360.01-18.8 358.01-21.35L358.01-21.35Q358.21-22.35 358.76-22.9 359.31-23.45 360.11-23.45L360.11-23.45Q360.96-23.45 361.46-23.03 361.96-22.6 362.46-21.9L362.46-21.9Q363.96-19.9 365.61-17.53 367.26-15.15 369.06-12.95Z" opacity="1" transform="matrix(1,0,0,1,0,0)" fill="#556970" class="wordmark-text-0" data-fill-palette-color="primary" id="text-0"></path></svg></g></svg></g></svg></g></svg></g><g transform="matrix(1,0,0,1,181.98573617380748,0)"><svg viewBox="0 0 33.52612765238494 61.56293136436598" height="61.56293136436598" width="33.52612765238494"><g><svg xmlns="http://www.w3.org/2000/svg" xmlns:xlink="http://www.w3.org/1999/xlink" version="1.1" x="0" y="0" viewBox="24.12699999999999 5.029 49.25100000000001 90.438" enable-background="new 0 0 100 100" xml:space="preserve" height="61.56293136436598" width="33.52612765238494" class="icon-icon-0" data-fill-palette-color="accent" id="icon-0"><g fill="#aba944" data-fill-palette-color="accent"><path fill-rule="evenodd" clip-rule="evenodd" d="M73.087 91.874l0.291-82.081c-14.097 0.385-15.631 9.457-15.631 14.407v6.083c0 3.432-0.799 8.363 4.756 12.047h0.021c3.84 2.533 3.427 8.502 3.427 10.717l0.623 38.826h0.015c-0.009 0.098-0.015 0.193-0.015 0.291 0 1.8 1.459 3.257 3.256 3.257 1.8 0 3.258-1.457 3.258-3.257 0-0.098-0.006-0.193-0.015-0.291H73.087z" fill="#aba944" data-fill-palette-color="accent"></path><g fill="#aba944" data-fill-palette-color="accent"><path fill-rule="evenodd" clip-rule="evenodd" d="M47.381 29.734C47.381 29.878 47.404 29.596 47.381 29.734L47.381 29.734z" fill="#aba944" data-fill-palette-color="accent"></path><path fill-rule="evenodd" clip-rule="evenodd" d="M47.381 29.734V12.332c0-1.372-1.112-2.484-2.484-2.484-1.372 0-2.485 1.112-2.485 2.484v15.231h-0.003c-0.021 1.145-0.955 2.067-2.104 2.067-1.15 0-2.084-0.922-2.104-2.067h-0.002V12.332c0-1.372-1.112-2.484-2.484-2.484-1.372 0-2.484 1.112-2.484 2.484v15.231h-0.002c-0.024 1.118-0.937 2.017-2.061 2.017s-2.036-0.899-2.061-2.017h-0.012V12.332c0-1.372-1.112-2.484-2.484-2.484-1.373 0-2.484 1.112-2.484 2.484V29.15c0 0.147 0.015 0.29 0.04 0.431v1.093c0 3.432-0.798 8.362 4.755 12.047h0.022c3.839 2.533 3.426 9.086 3.426 11.3l0.128 38.438c0 1.661 1.347 3.008 3.008 3.008 1.662 0 3.009-1.347 3.009-3.008l0.624-39.702c0-2.214-0.414-7.601 3.425-10.134h0.022C48.051 38.997 47.404 33.157 47.381 29.734z" fill="#aba944" data-fill-palette-color="accent"></path></g><path fill-rule="evenodd" clip-rule="evenodd" d="M62.288 95.466c-4.581-6.189-4.391-5.954-9.807-5.954-5.416 0-5.242-0.208-9.806 5.954" fill="#aba944" data-fill-palette-color="accent"></path><path fill-rule="evenodd" clip-rule="evenodd" d="M57.198 6.026c0-0.006 0.002-0.012 0.002-0.02 0-0.54-0.438-0.977-0.977-0.977-0.004 0-0.008 0.001-0.012 0.001-0.001 0-0.001-0.001-0.001-0.001h-6.674c-0.003 0-0.005 0-0.009 0-0.002 0-0.004 0-0.007 0-0.019 0-0.036 0.004-0.055 0.005-0.026 0.002-0.054 0.003-0.077 0.008-0.471 0.065-0.833 0.464-0.833 0.951 0 0.067 0.007 0.131 0.019 0.194-0.001 0-0.002 0.001-0.003 0.001l0.505 4.789h7.595L57.2 6.029C57.2 6.028 57.199 6.028 57.198 6.026z" fill="#aba944" data-fill-palette-color="accent"></path></g></svg></g></svg></g><g></g></svg></g><defs></defs></svg><rect width="395.52" height="139.73572538078227" fill="none" stroke="none" visibility="hidden"></rect></g></svg></g></svg>